<svg xmlns="http://www.w3.org/2000/svg" xmlns:xlink="http://www.w3.org/1999/xlink" id="Layer_1" x="0px" y="0px" width="100px" height="100px" viewBox="0 0 100 100" style="enable-background:new 0 0 100 100;" xml:space="preserve"><style type="text/css">	.st0{fill:#FFFFFF;}	.st1{fill:#23B478;}</style><path class="st0" d="M90.1,100H9.9C4.4,100,0,95.6,0,90.1V9.9C0,4.4,4.4,0,9.9,0h80.2c5.5,0,9.9,4.4,9.9,9.9v80.2 C100,95.6,95.6,100,90.1,100z"></path><g>	<g>		<polygon class="st1" points="86.3,11.3 85.7,8.9 48,16.1 48.6,18.6   "></polygon>		<g>			<path class="st1" d="M78.4,17.6V24c0,1.5-1.2,2.7-2.7,2.7H40c-1.5,0-2.7-1.2-2.7-2.7V6.7h-9.1v21.7l0,0c0,4,3.3,7.3,7.3,7.3h44.7    c4,0,7.3-3.3,7.3-7.3l0,0V17.6H78.4L78.4,17.6z"></path>			<path class="st1" d="M13.6,33.9h-1.8V43h5.4c4,0,7.3-3.3,7.3-7.3l0,0V17.6h-9v14.5C15.5,33.1,14.6,33.9,13.6,33.9z"></path>		</g>		<ellipse class="st1" cx="20" cy="12.1" rx="4.5" ry="3.6"></ellipse>		<ellipse class="st1" cx="59.1" cy="41.2" rx="4.5" ry="3.6"></ellipse>		<g>			<path class="st1" d="M36.6,68.9c0-3.8-3-6.8-6.7-6.8h-1.7c1.2,0,2.3-0.3,3.3-0.9c0.6-0.3,1.1-0.7,1.5-1.1c1.2-1.2,2-2.9,2-4.8    v-0.1c0-3.8-3-6.8-6.7-6.8H11.8v27.3h18c1.9,0,3.5-0.8,4.8-2C35.8,72.5,36.6,70.8,36.6,68.9L36.6,68.9L36.6,68.9z M19.4,54.8h6.9    c0.8,0,1.4,0.8,1.4,1.9c0,0.5-0.2,1-0.4,1.3c-0.3,0.3-0.6,0.5-1,0.5h-6.9V54.8L19.4,54.8z M27.8,67.8c-0.3,0.3-0.6,0.5-1,0.5    h-7.4v-3.6h7.4c0.8,0,1.4,0.8,1.4,1.8C28.2,67,28,67.4,27.8,67.8L27.8,67.8z"></path>			<path class="st1" d="M55.6,48.5H44.4l0,0L36,75.7h8.3l1.4-4.9h8.6l1.4,4.9H64L55.6,48.5L55.6,48.5L55.6,48.5z M50.5,63.8h-2.8    l2.3-8.3l2.3,8.3H50.5L50.5,63.8z"></path>			<polygon class="st1" points="88.1,48.5 64.8,48.5 64.8,55.9 76.6,55.9 64.8,68.3 64.8,75.7 88.1,75.7 88.1,68.3 76.3,68.3     88.1,55.9    "></polygon>		</g>	</g>	<g>		<g>			<path d="M13.8,81.9L13.8,81.9c0.3,0,0.5-0.1,0.5-0.4s-0.2-0.4-0.4-0.4h-0.1c-0.2,0-0.4,0.1-0.4,0.4S13.6,81.9,13.8,81.9z"></path>			<path d="M12.8,81.9h0.1c0.2,0,0.4-0.1,0.4-0.4s-0.2-0.4-0.4-0.4h-0.1c-0.2,0-0.4,0.1-0.4,0.4S12.6,81.9,12.8,81.9z"></path>			<path d="M22.5,84.6c-0.3,0.1-0.5,0.1-0.8,0.1c-0.7,0-1.1-0.3-1.1-0.7c0-0.4,0.3-0.6,0.8-0.6c0.3,0,0.6,0.1,0.8,0.4l0.7-0.6    c-0.3-0.5-0.7-0.8-1.4-0.8c-0.9,0-1.5,0.7-1.5,1.5c0,0.3,0.1,0.6,0.3,0.9l0,0h-1.9l0,0H17l0,0h-2.1l0,0h-0.2    c-0.3,0-0.4-0.1-0.4-0.4v-2.1h-0.8v0.4l-0.7,0.4c-0.7,0.3-1.1,0.7-1.1,1.5c0,0.6,0.3,1,0.9,1c0.5,0,0.8-0.2,0.9-0.8l0,0l0,0    c0,0.7,0.4,1.1,1.1,1.1l0,0l0,0h2.1l0,0h1.4l0,0h1.4c1.5,0,2.1-0.1,2.8-0.3l1-0.3L23,84.4L22.5,84.6L22.5,84.6z M13.5,84.3    c0,0.3-0.2,0.3-0.7,0.3c-0.4,0-0.5-0.1-0.5-0.3c0-0.3,0.2-0.4,0.7-0.6l0.5-0.2V84.3L13.5,84.3z"></path>			<path d="M26.4,83h0.1c0.2,0,0.4-0.1,0.4-0.4s-0.2-0.4-0.4-0.4h-0.1c-0.2,0-0.4,0.1-0.4,0.4C26,82.9,26.2,83,26.4,83z"></path>			<path d="M36.4,84.5c0,0.3-0.1,0.4-0.4,0.4h-0.3l0,0h-0.2c-0.3,0-0.5-0.1-0.5-0.5V81h-0.8v3.4c0,0.3-0.2,0.5-0.5,0.5h-0.2l0,0    h-0.2c-0.1,0-0.2,0-0.3,0c0-0.1,0-0.3,0-0.4c0-1-0.5-1.6-1.5-1.6c-0.9,0-1.5,0.4-2.1,1.5l-0.3,0.5c-0.1-0.1-0.2-0.2-0.2-0.4v-0.4    h-0.7v0.4c0,0.3-0.2,0.5-0.5,0.5h-0.2l0,0h-0.3c-0.3,0-0.5-0.1-0.5-0.5v-0.9H26v0.9c0,0.3-0.2,0.5-0.5,0.5h-0.2l0,0h-0.2    c-0.4,0-0.5-0.1-0.5-0.5v-3.4h-0.8v3.5c0,0.9,0.4,1.3,1.3,1.3l0,0l0,0c0.6,0,0.8-0.3,1-0.9l0,0c0.1,0.6,0.5,0.9,1.2,0.9l0,0l0,0    c0.6,0,0.8-0.3,1-0.9l0,0c0.1,0.6,0.5,0.9,1.2,0.9h1.9c0.5,0,0.9-0.1,1.2-0.3c0.2,0.2,0.5,0.3,0.8,0.3l0,0l0,0    c0.5,0,0.8-0.3,0.9-0.9l0,0c0.1,0.6,0.5,0.9,1.2,0.9l0,0l0,0H36c0.9,0,1.2-0.4,1.2-1.4V81h-0.8L36.4,84.5L36.4,84.5z M31.4,84.9    h-1.6l0,0l0.3-0.4c0.3-0.5,0.7-0.6,1.5-0.6h0.2c0.6,0,0.8,0.2,0.8,0.6C32.5,84.8,32.2,84.9,31.4,84.9L31.4,84.9z"></path>			<path d="M41.6,81.9L41.6,81.9c0.3,0,0.5-0.1,0.5-0.4s-0.2-0.4-0.4-0.4h-0.1c-0.2,0-0.4,0.1-0.4,0.4    C41.2,81.8,41.4,81.9,41.6,81.9z"></path>			<path d="M40.6,81.9h0.1c0.2,0,0.4-0.1,0.4-0.4s-0.2-0.4-0.4-0.4h-0.1c-0.2,0-0.4,0.1-0.4,0.4S40.3,81.9,40.6,81.9z"></path>			<path d="M48.5,86.4L48.5,86.4c-0.3,0-0.5,0.1-0.5,0.4s0.2,0.4,0.4,0.4h0.1c0.2,0,0.4-0.1,0.4-0.4C48.9,86.5,48.7,86.4,48.5,86.4z    "></path>			<path d="M47.4,86.4L47.4,86.4c-0.3,0-0.5,0.1-0.5,0.4s0.2,0.4,0.4,0.4h0.1c0.2,0,0.4-0.1,0.4-0.4C47.8,86.5,47.7,86.4,47.4,86.4z    "></path>			<path d="M50.1,85v-4h-0.8v3.9h-0.4l0,0h-0.3c-0.3,0-0.5-0.1-0.5-0.5v-0.9h-0.6v0.9c0,0.3-0.2,0.5-0.5,0.5h-0.9l0,0h-1.4l0,0h-2.1    l0,0h-0.2c-0.3,0-0.4-0.1-0.4-0.4v-2.1h-0.8v0.4l-0.7,0.4c-0.7,0.3-1.1,0.7-1.1,1.5c0,0.6,0.3,1,0.9,1c0.5,0,0.8-0.2,0.9-0.8l0,0    l0,0c0,0.7,0.4,1.1,1.1,1.1l0,0l0,0h2.2l0,0h1.4l0,0h0.7c0.6,0,0.8-0.3,1-0.9l0,0c0.1,0.6,0.5,0.9,1.2,0.9l0,0l0,0h0.5    c0.5,0,0.7,0.1,1.2,0.3l0.3,0.2l0.5-0.9L51,85.4C50.6,85.2,50.4,85.1,50.1,85L50.1,85z M41.2,84.3c0,0.3-0.2,0.3-0.7,0.3    c-0.4,0-0.5-0.1-0.5-0.3c0-0.3,0.2-0.4,0.7-0.6l0.5-0.2V84.3L41.2,84.3z"></path>			<path d="M57,84.5c0,0.3-0.1,0.4-0.4,0.4h-0.3l0,0h-0.8l0,0c0.4-0.3,0.6-0.5,0.6-1c0-0.8-0.5-1.1-1.5-1.1c-0.5,0-1,0.1-1.4,0.3v1    l0.6,0.8l0,0h-0.9l0,0h-0.2c-0.4,0-0.5-0.1-0.5-0.5V81h-0.7v3.5c0,0.9,0.4,1.3,1.3,1.3l0,0l0,0h0.5c0.5,0,0.9-0.1,1.3-0.4    c0.4,0.3,0.9,0.4,1.4,0.4h0.1l0,0h0.5c0.9,0,1.2-0.4,1.2-1.4v-3.5H57V84.5L57,84.5z M55.1,84.5l-0.4,0.3l-0.9-1l0,0    c0.2,0,0.5-0.1,0.8-0.1c0.6,0,0.8,0.1,0.8,0.3C55.4,84.3,55.3,84.3,55.1,84.5L55.1,84.5z"></path>			<rect x="58.5" y="81" width="0.8" height="4.8"></rect>			<path d="M62.3,83.2L62.3,83.2c0.3,0,0.5-0.1,0.5-0.4s-0.2-0.4-0.4-0.4h-0.1c-0.2,0-0.4,0.1-0.4,0.4C61.9,83.1,62,83.2,62.3,83.2z    "></path>			<path d="M62.8,83.8l-0.7,0.1l0.1,0.9c0,0.3,0.1,0.5,0.1,0.7c0,0.7-0.4,1-1.1,1h-0.3v1h0.3c1.2,0,1.9-0.8,1.9-2.1    c0-0.2,0-0.6-0.1-1L62.8,83.8L62.8,83.8z"></path>			<path d="M69.7,86.4h-0.2c-0.2,0-0.4,0.1-0.4,0.4s0.2,0.4,0.4,0.4h0.1c0.2,0,0.4-0.1,0.4-0.4C70.1,86.5,69.9,86.4,69.7,86.4z"></path>			<path d="M70.1,83.1l-0.7,0.1l0.1,0.6c0.1,0.3,0.1,0.5,0.1,0.7c0,0.3-0.2,0.4-0.8,0.4h-0.9l0,0h-2.1l0,0h-0.7l0,0h-0.2    c-0.4,0-0.5-0.1-0.5-0.5V81h-0.8v3.5c0,0.9,0.4,1.3,1.3,1.3l0,0l0,0h0.7l0,0h2.1l0,0h1.1c1.1,0,1.5-0.4,1.5-1.4    c0-0.2,0-0.5-0.1-0.8L70.1,83.1L70.1,83.1z"></path>			<path d="M74.4,81.9L74.4,81.9c0.3,0,0.5-0.1,0.5-0.4s-0.2-0.4-0.4-0.4h-0.1c-0.2,0-0.4,0.1-0.4,0.4    C74.1,81.8,74.2,81.9,74.4,81.9z"></path>			<path d="M73.4,81.9L73.4,81.9c0.3,0,0.5-0.1,0.5-0.4s-0.2-0.4-0.4-0.4h-0.1c-0.2,0-0.4,0.1-0.4,0.4S73.2,81.9,73.4,81.9z"></path>			<path d="M78.7,83.2L78,82.8l0,0l2.8-0.9V81l-3.1,1v1.7l1.1,0.6c0.3,0.2,0.4,0.3,0.4,0.4c0,0.2-0.1,0.2-0.4,0.2h-1.1l0,0h-1.4l0,0    h-0.8l0,0h-0.2c-0.3,0-0.4-0.1-0.4-0.4v-2.1h-0.8v0.4l-0.7,0.4c-0.7,0.3-1.1,0.7-1.1,1.5c0,0.6,0.3,1,0.9,1    c0.5,0,0.8-0.2,0.9-0.8l0,0l0,0c0,0.7,0.4,1.1,1.1,1.1l0,0l0,0h0.7l0,0h1.4l0,0h1.1c0.9,0,1.3-0.4,1.3-1.3    C79.8,83.9,79.5,83.6,78.7,83.2L78.7,83.2z M74.1,84.3c0,0.3-0.2,0.3-0.7,0.3c-0.4,0-0.5-0.1-0.5-0.3c0-0.3,0.2-0.4,0.7-0.6    l0.5-0.2V84.3L74.1,84.3z"></path>			<path d="M86.1,83.1c0,0.3,0.2,0.4,0.4,0.4h0.1c0.2,0,0.4-0.1,0.4-0.4s-0.2-0.4-0.4-0.4h-0.1C86.2,82.6,86.1,82.8,86.1,83.1z"></path>			<path d="M85.9,82.6L85.9,82.6c0.3,0,0.5-0.1,0.5-0.4s-0.2-0.4-0.4-0.4h-0.1c-0.2,0-0.4,0.1-0.4,0.4    C85.5,82.4,85.7,82.6,85.9,82.6z"></path>			<path d="M85.4,83.5L85.4,83.5c0.3,0,0.5-0.1,0.5-0.4s-0.2-0.4-0.4-0.4h-0.1c-0.2,0-0.4,0.1-0.4,0.4C85,83.4,85.2,83.5,85.4,83.5z    "></path>			<path d="M87.7,83.8l-0.1-0.3l-0.7,0.1l0.1,0.3c0,0.3,0.1,0.4,0.1,0.6c0,0.3-0.1,0.4-0.3,0.4h-0.1c-0.2,0-0.4-0.2-0.4-0.5V84h-0.7    v0.4c0,0.4-0.2,0.5-0.5,0.5c-0.2,0-0.4-0.1-0.7-0.2l0.2-0.5L84,83.9l-0.3,0.5c-0.1,0.3-0.3,0.3-0.7,0.3h-0.7l0,0h-0.6    c0-0.2,0-0.3-0.1-0.5l-0.1-0.6l-0.7,0.1l0.1,0.9c0,0.3,0.1,0.5,0.1,0.7c0,0.7-0.4,1-1.1,1h-0.3v1h0.3c1,0,1.7-0.6,1.8-1.6h0.4    l0,0h0.7c0.5,0,0.8-0.1,1.1-0.3l0.1,0.1c0.4,0.2,0.6,0.3,0.9,0.3c0.4,0,0.6-0.3,0.7-0.9l0,0c0.1,0.6,0.4,0.9,1,0.9    c0.7,0,1-0.4,1-1.4C87.8,84.3,87.8,84.1,87.7,83.8L87.7,83.8z"></path>		</g>		<g>			<path d="M11.8,88.7H14c0.7,0,1.2,0.5,1.2,1.2s-0.4,1-0.8,1l0,0c0.4,0,1,0.3,1,1.1c0,0.7-0.5,1.3-1.2,1.3h-2.4V88.7L11.8,88.7z     M12.8,90.6h1c0.3,0,0.4-0.2,0.4-0.4V90c0-0.3-0.2-0.4-0.4-0.4h-1L12.8,90.6L12.8,90.6z M12.8,92.4h1.1c0.3,0,0.4-0.2,0.4-0.4    v-0.2c0-0.3-0.2-0.4-0.4-0.4h-1.1V92.4z"></path>			<path d="M18.9,93.2l-0.4-1H17l-0.3,1.1h-1l1.5-4.6h1.2l1.5,4.5H18.9z M17.8,89.6L17.8,89.6l-0.5,1.7h1L17.8,89.6z"></path>			<path d="M23.7,93.2h-3.4v-0.9l2.2-2.8h-2.1v-0.8h3.3v0.9l-2.2,2.8h2.3L23.7,93.2L23.7,93.2z"></path>			<path d="M25.8,93.2v-0.8h0.6v-3h-0.6v-0.7H28v0.8h-0.6v3H28v0.8h-2.2V93.2z"></path>			<path d="M30.2,91.1l-0.4-0.9l0,0v3.1h-0.9v-4.6H30l1.2,2.1l0.4,0.9l0,0v-3h0.9v4.5h-1.1L30.2,91.1z"></path>			<path d="M35.4,89.6v3.7h-1v-3.7h-1.2v-0.9h3.4v0.9H35.4L35.4,89.6z"></path>			<path d="M37.3,93.2v-4.5h1v3.7H40v0.9L37.3,93.2L37.3,93.2z"></path>			<path d="M40.8,92.8L40.8,92.8c0-0.4,0.2-0.6,0.6-0.6c0.4,0,0.6,0.2,0.6,0.5v0.1c0,0.3-0.2,0.5-0.6,0.5    C41,93.3,40.8,93.1,40.8,92.8z"></path>			<path d="M44.3,93.2v-0.8h0.6v-3h-0.6v-0.7h2.2v0.8h-0.6v3h0.6v0.8h-2.2V93.2z"></path>			<path d="M48.6,91.1l-0.4-0.9l0,0v3.1h-0.9v-4.6h1.1l1.2,2.1l0.4,0.9l0,0v-3h0.9v4.5h-1.1L48.6,91.1z"></path>			<path d="M52,88.7h1.7c1.2,0,2,0.8,2,2.3s-0.8,2.3-2,2.3H52V88.7L52,88.7z M53.7,92.4c0.6,0,0.9-0.3,0.9-1v-0.7c0-0.7-0.4-1-0.9-1    H53v2.8L53.7,92.4L53.7,92.4z"></path>			<path d="M57.4,88.7v2.8c0,0.6,0.2,1,0.8,1s0.8-0.3,0.8-1v-2.8h1v2.7c0,1.3-0.5,1.9-1.8,1.9s-1.7-0.6-1.7-1.9v-2.7H57.4L57.4,88.7    z"></path>			<path d="M60.8,92.6l0.7-0.7c0.3,0.3,0.7,0.5,1.1,0.5c0.5,0,0.7-0.2,0.7-0.5c0-0.2-0.1-0.4-0.5-0.5l-0.4-0.1    c-1-0.1-1.4-0.6-1.4-1.4s0.6-1.4,1.7-1.4c0.7,0,1.2,0.2,1.6,0.6l-0.8,0.8c-0.2-0.3-0.5-0.4-1-0.4c-0.4,0-0.7,0.2-0.7,0.4    c0,0.3,0.2,0.4,0.5,0.5l0.4,0.1c0.9,0.2,1.4,0.6,1.4,1.3c0,0.9-0.6,1.5-1.8,1.5C61.7,93.3,61.2,93,60.8,92.6L60.8,92.6z"></path>			<path d="M66.8,89.6v3.7h-1v-3.7h-1.2v-0.9H68v0.9H66.8L66.8,89.6z"></path>			<path d="M69.7,93.2h-1v-4.5h2.2c0.8,0,1.4,0.6,1.4,1.4c0,0.6-0.3,1.1-0.8,1.3l0.9,1.8h-1.1l-0.8-1.7h-0.7L69.7,93.2L69.7,93.2z     M70.8,90.7c0.3,0,0.5-0.2,0.5-0.4V90c0-0.3-0.2-0.4-0.5-0.4h-1v1.1H70.8z"></path>			<path d="M74,93.2v-1.8l-1.6-2.7h1.1l1,1.8l0,0l0.9-1.8h1.1l-1.6,2.8v1.8H74V93.2z"></path>			<path d="M78.4,91c0-1.5,0.8-2.4,2-2.4c0.8,0,1.4,0.3,1.7,1.1l-0.9,0.4c-0.1-0.4-0.4-0.6-0.8-0.6c-0.6,0-1,0.4-1,1.1v0.7    c0,0.7,0.4,1.1,1,1.1c0.5,0,0.8-0.3,0.9-0.7l0.8,0.5c-0.3,0.7-0.9,1.1-1.7,1.1C79.2,93.3,78.4,92.5,78.4,91L78.4,91z"></path>			<path d="M82.6,91c0-1.5,0.8-2.3,2-2.3s2,0.8,2,2.3s-0.8,2.3-2,2.3S82.6,92.5,82.6,91z M85.5,91.3v-0.7c0-0.7-0.4-1.1-0.9-1.1    c-0.6,0-0.9,0.4-0.9,1.1v0.7c0,0.7,0.4,1.1,0.9,1.1C85.2,92.4,85.5,92,85.5,91.3z"></path>			<path d="M87.1,92.8L87.1,92.8c0-0.4,0.2-0.6,0.6-0.6s0.6,0.2,0.6,0.5v0.1c0,0.3-0.2,0.5-0.6,0.5S87.1,93.1,87.1,92.8z"></path>		</g>	</g></g></svg>