<svg xmlns="http://www.w3.org/2000/svg" xmlns:xlink="http://www.w3.org/1999/xlink" id="Layer_1" x="0px" y="0px" width="80.9px" height="92.6px" viewBox="0 0 80.9 92.6" style="enable-background:new 0 0 80.9 92.6;" xml:space="preserve"><style type="text/css">	.st0{fill:#23B478;}</style><g>	<g>		<polygon class="st0" points="76.8,7.6 76.2,5.2 38.5,12.4 39.1,14.9   "></polygon>		<g>			<path class="st0" d="M68.9,13.9v6.4c0,1.5-1.2,2.7-2.7,2.7H30.5c-1.5,0-2.7-1.2-2.7-2.7V3h-9.1v21.7l0,0c0,4,3.3,7.3,7.3,7.3    h44.7c4,0,7.3-3.3,7.3-7.3l0,0V13.9L68.9,13.9L68.9,13.9z"></path>			<path class="st0" d="M4.1,30.2H2.3v9.1h5.4c4,0,7.3-3.3,7.3-7.3l0,0V13.9H6v14.5C6,29.4,5.1,30.2,4.1,30.2z"></path>		</g>		<ellipse class="st0" cx="10.5" cy="8.4" rx="4.5" ry="3.6"></ellipse>		<ellipse class="st0" cx="49.6" cy="37.5" rx="4.5" ry="3.6"></ellipse>		<g>			<path class="st0" d="M27.1,65.2c0-3.8-3-6.8-6.7-6.8h-1.7c1.2,0,2.3-0.3,3.3-0.9c0.6-0.3,1.1-0.7,1.5-1.1c1.2-1.2,2-2.9,2-4.8    v-0.1c0-3.8-3-6.8-6.7-6.8H2.3V72h18c1.9,0,3.5-0.8,4.8-2C26.3,68.8,27.1,67.1,27.1,65.2C27.1,65.2,27.1,65.2,27.1,65.2    L27.1,65.2z M9.9,51.1h6.9c0.8,0,1.4,0.8,1.4,1.9c0,0.5-0.2,1-0.4,1.3c-0.3,0.3-0.6,0.5-1,0.5H9.9L9.9,51.1L9.9,51.1z M18.3,64.1    c-0.3,0.3-0.6,0.5-1,0.5H9.9V61h7.4c0.8,0,1.4,0.8,1.4,1.8C18.7,63.3,18.5,63.7,18.3,64.1L18.3,64.1z"></path>			<path class="st0" d="M46.1,44.8H34.9l0,0L26.5,72h8.3l1.4-4.9h8.6l1.4,4.9h8.3L46.1,44.8L46.1,44.8L46.1,44.8z M41,60.1h-2.8    l2.3-8.3l2.3,8.3H41L41,60.1z"></path>			<polygon class="st0" points="78.6,44.8 55.3,44.8 55.3,52.2 67.1,52.2 55.3,64.6 55.3,72 78.6,72 78.6,64.6 66.8,64.6 78.6,52.2        "></polygon>		</g>	</g>	<g>		<g>			<path d="M4.3,78.2h0.1c0.2,0,0.4-0.1,0.4-0.4c0-0.3-0.2-0.4-0.4-0.4H4.3c-0.2,0-0.4,0.1-0.4,0.4C3.9,78.1,4.1,78.2,4.3,78.2z"></path>			<path d="M3.3,78.2h0.1c0.2,0,0.4-0.1,0.4-0.4c0-0.3-0.2-0.4-0.4-0.4H3.3c-0.2,0-0.4,0.1-0.4,0.4C2.9,78.1,3.1,78.2,3.3,78.2z"></path>			<path d="M13,80.9C12.7,81,12.5,81,12.2,81c-0.7,0-1.1-0.3-1.1-0.7c0-0.4,0.3-0.6,0.8-0.6c0.3,0,0.6,0.1,0.8,0.4l0.7-0.6    c-0.3-0.5-0.7-0.8-1.4-0.8c-0.9,0-1.5,0.7-1.5,1.5c0,0.3,0.1,0.6,0.3,0.9v0H8.9l0,0H7.5l0,0H5.4l0,0H5.2c-0.3,0-0.4-0.1-0.4-0.4    v-2.1H4v0.4l-0.7,0.4c-0.7,0.3-1.1,0.7-1.1,1.5c0,0.6,0.3,1,0.9,1c0.5,0,0.8-0.2,0.9-0.8h0v0c0,0.7,0.4,1.1,1.1,1.1l0,0l0,0h2.1    l0,0h1.4l0,0h1.4c1.5,0,2.1-0.1,2.8-0.3l1-0.3l-0.3-0.9L13,80.9L13,80.9z M4,80.6c0,0.3-0.2,0.3-0.7,0.3c-0.4,0-0.5-0.1-0.5-0.3    c0-0.3,0.2-0.4,0.7-0.6L4,79.8V80.6L4,80.6z"></path>			<path d="M16.9,79.3H17c0.2,0,0.4-0.1,0.4-0.4c0-0.3-0.2-0.4-0.4-0.4h-0.1c-0.2,0-0.4,0.1-0.4,0.4C16.5,79.2,16.7,79.3,16.9,79.3z    "></path>			<path d="M26.9,80.8c0,0.3-0.1,0.4-0.4,0.4h-0.3l0,0H26c-0.3,0-0.5-0.1-0.5-0.5v-3.4h-0.8v3.4c0,0.3-0.2,0.5-0.5,0.5h-0.2l0,0    h-0.2c-0.1,0-0.2,0-0.3,0c0-0.1,0-0.3,0-0.4c0-1-0.5-1.6-1.5-1.6c-0.9,0-1.5,0.4-2.1,1.5l-0.3,0.5c-0.1-0.1-0.2-0.2-0.2-0.4v-0.4    h-0.7v0.4c0,0.3-0.2,0.5-0.5,0.5H18l0,0h-0.3c-0.3,0-0.5-0.1-0.5-0.5v-0.9h-0.7v0.9c0,0.3-0.2,0.5-0.5,0.5h-0.2l0,0h-0.2    c-0.4,0-0.5-0.1-0.5-0.5v-3.4h-0.8v3.5c0,0.9,0.4,1.3,1.3,1.3h0l0,0c0.6,0,0.8-0.3,1-0.9h0c0.1,0.6,0.5,0.9,1.2,0.9l0,0l0,0    c0.6,0,0.8-0.3,1-0.9h0c0.1,0.6,0.5,0.9,1.2,0.9h1.9c0.5,0,0.9-0.1,1.2-0.3c0.2,0.2,0.5,0.3,0.8,0.3l0,0l0,0    c0.5,0,0.8-0.3,0.9-0.9h0c0.1,0.6,0.5,0.9,1.2,0.9l0,0l0,0h0.5c0.9,0,1.2-0.4,1.2-1.4v-3.5h-0.8L26.9,80.8L26.9,80.8z M21.9,81.2    h-1.6l0,0l0.3-0.4c0.3-0.5,0.7-0.6,1.5-0.6h0.2c0.6,0,0.8,0.2,0.8,0.6C23,81.1,22.7,81.2,21.9,81.2L21.9,81.2z"></path>			<path d="M32.1,78.2h0.1c0.2,0,0.4-0.1,0.4-0.4c0-0.3-0.2-0.4-0.4-0.4h-0.1c-0.2,0-0.4,0.1-0.4,0.4C31.7,78.1,31.9,78.2,32.1,78.2    z"></path>			<path d="M31.1,78.2h0.1c0.2,0,0.4-0.1,0.4-0.4c0-0.3-0.2-0.4-0.4-0.4h-0.1c-0.2,0-0.4,0.1-0.4,0.4C30.7,78.1,30.8,78.2,31.1,78.2    z"></path>			<path d="M39,82.7h-0.1c-0.2,0-0.4,0.1-0.4,0.4c0,0.3,0.2,0.4,0.4,0.4H39c0.2,0,0.4-0.1,0.4-0.4C39.4,82.8,39.2,82.7,39,82.7z"></path>			<path d="M37.9,82.7h-0.1c-0.2,0-0.4,0.1-0.4,0.4c0,0.3,0.2,0.4,0.4,0.4h0.1c0.2,0,0.4-0.1,0.4-0.4C38.3,82.8,38.2,82.7,37.9,82.7    z"></path>			<path d="M40.6,81.3v-4h-0.8v3.9h-0.4l0,0h-0.3c-0.3,0-0.5-0.1-0.5-0.5v-0.9H38v0.9c0,0.3-0.2,0.5-0.5,0.5h-0.9l0,0h-1.4l0,0h-2.1    l0,0h-0.2c-0.3,0-0.4-0.1-0.4-0.4v-2.1h-0.8v0.4L31,79.5c-0.7,0.3-1.1,0.7-1.1,1.5c0,0.6,0.3,1,0.9,1c0.5,0,0.8-0.2,0.9-0.8h0v0    c0,0.7,0.4,1.1,1.1,1.1l0,0l0,0H35l0,0h1.4l0,0h0.7c0.6,0,0.8-0.3,1-0.9h0c0.1,0.6,0.5,0.9,1.2,0.9l0,0l0,0h0.5    c0.5,0,0.7,0.1,1.2,0.3l0.3,0.2l0.5-0.9l-0.3-0.2C41.1,81.5,40.9,81.4,40.6,81.3L40.6,81.3z M31.7,80.6c0,0.3-0.2,0.3-0.7,0.3    c-0.4,0-0.5-0.1-0.5-0.3c0-0.3,0.2-0.4,0.7-0.6l0.5-0.2V80.6L31.7,80.6z"></path>			<path d="M47.5,80.8c0,0.3-0.1,0.4-0.4,0.4h-0.3l0,0H46l0,0c0.4-0.3,0.6-0.5,0.6-1c0-0.8-0.5-1.1-1.5-1.1c-0.5,0-1,0.1-1.4,0.3v1    l0.6,0.8l0,0h-0.9l0,0h-0.2c-0.4,0-0.5-0.1-0.5-0.5v-3.4H42v3.5c0,0.9,0.4,1.3,1.3,1.3h0l0,0h0.5c0.5,0,0.9-0.1,1.3-0.4    c0.4,0.3,0.9,0.4,1.4,0.4h0.1l0,0h0.5c0.9,0,1.2-0.4,1.2-1.4v-3.5h-0.8L47.5,80.8L47.5,80.8z M45.6,80.8l-0.4,0.3l-0.9-1v0    c0.2,0,0.5-0.1,0.8-0.1c0.6,0,0.8,0.1,0.8,0.3C45.9,80.6,45.8,80.6,45.6,80.8L45.6,80.8z"></path>			<rect x="49" y="77.3" width="0.8" height="4.8"></rect>			<path d="M52.8,79.5h0.1c0.2,0,0.4-0.1,0.4-0.4c0-0.3-0.2-0.4-0.4-0.4h-0.1c-0.2,0-0.4,0.1-0.4,0.4C52.4,79.4,52.5,79.5,52.8,79.5    z"></path>			<path d="M53.3,80.1l-0.7,0.1l0.1,0.9c0,0.3,0.1,0.5,0.1,0.7c0,0.7-0.4,1-1.1,1h-0.3v1h0.3c1.2,0,1.9-0.8,1.9-2.1    c0-0.2,0-0.6-0.1-1L53.3,80.1L53.3,80.1z"></path>			<path d="M60.2,82.7H60c-0.2,0-0.4,0.1-0.4,0.4c0,0.3,0.2,0.4,0.4,0.4h0.1c0.2,0,0.4-0.1,0.4-0.4C60.6,82.8,60.4,82.7,60.2,82.7z"></path>			<path d="M60.6,79.4l-0.7,0.1l0.1,0.6c0.1,0.3,0.1,0.5,0.1,0.7c0,0.3-0.2,0.4-0.8,0.4h-0.9l0,0h-2.1l0,0h-0.7l0,0h-0.2    c-0.4,0-0.5-0.1-0.5-0.5v-3.4h-0.8v3.5c0,0.9,0.4,1.3,1.3,1.3h0l0,0h0.7l0,0h2.1l0,0h1.1c1.1,0,1.5-0.4,1.5-1.4    c0-0.2,0-0.5-0.1-0.8L60.6,79.4L60.6,79.4z"></path>			<path d="M64.9,78.2h0.1c0.2,0,0.4-0.1,0.4-0.4c0-0.3-0.2-0.4-0.4-0.4h-0.1c-0.2,0-0.4,0.1-0.4,0.4C64.6,78.1,64.7,78.2,64.9,78.2    z"></path>			<path d="M63.9,78.2H64c0.2,0,0.4-0.1,0.4-0.4c0-0.3-0.2-0.4-0.4-0.4h-0.1c-0.2,0-0.4,0.1-0.4,0.4C63.5,78.1,63.7,78.2,63.9,78.2z    "></path>			<path d="M69.2,79.5l-0.7-0.4v0l2.8-0.9v-0.9l-3.1,1V80l1.1,0.6c0.3,0.2,0.4,0.3,0.4,0.4c0,0.2-0.1,0.2-0.4,0.2h-1.1l0,0h-1.4l0,0    H66l0,0h-0.2c-0.3,0-0.4-0.1-0.4-0.4v-2.1h-0.8v0.4l-0.7,0.4c-0.7,0.3-1.1,0.7-1.1,1.5c0,0.6,0.3,1,0.9,1c0.5,0,0.8-0.2,0.9-0.8    h0v0c0,0.7,0.4,1.1,1.1,1.1l0,0l0,0h0.7l0,0h1.4l0,0h1.1c0.9,0,1.3-0.4,1.3-1.3C70.3,80.2,70,79.9,69.2,79.5L69.2,79.5z     M64.6,80.6c0,0.3-0.2,0.3-0.7,0.3c-0.4,0-0.5-0.1-0.5-0.3c0-0.3,0.2-0.4,0.7-0.6l0.5-0.2V80.6L64.6,80.6z"></path>			<path d="M76.6,79.4c0,0.3,0.2,0.4,0.4,0.4h0.1c0.2,0,0.4-0.1,0.4-0.4c0-0.3-0.2-0.4-0.4-0.4h-0.1C76.7,78.9,76.6,79.1,76.6,79.4z    "></path>			<path d="M76.4,78.9h0.1c0.2,0,0.4-0.1,0.4-0.4c0-0.3-0.2-0.4-0.4-0.4h-0.1c-0.2,0-0.4,0.1-0.4,0.4C76,78.7,76.2,78.9,76.4,78.9z"></path>			<path d="M75.9,79.8H76c0.2,0,0.4-0.1,0.4-0.4c0-0.3-0.2-0.4-0.4-0.4h-0.1c-0.2,0-0.4,0.1-0.4,0.4C75.5,79.7,75.7,79.8,75.9,79.8z    "></path>			<path d="M78.2,80.1l-0.1-0.3l-0.7,0.1l0.1,0.3c0,0.3,0.1,0.4,0.1,0.6c0,0.3-0.1,0.4-0.3,0.4h-0.1c-0.2,0-0.4-0.2-0.4-0.5v-0.4    h-0.7v0.4c0,0.4-0.2,0.5-0.5,0.5c-0.2,0-0.4-0.1-0.7-0.2l0.2-0.5l-0.6-0.3l-0.3,0.5c-0.1,0.3-0.3,0.3-0.7,0.3h-0.7l0,0h-0.6    c0-0.2,0-0.3-0.1-0.5l-0.1-0.6l-0.7,0.1l0.1,0.9c0,0.3,0.1,0.5,0.1,0.7c0,0.7-0.4,1-1.1,1h-0.3v1h0.3c1,0,1.7-0.6,1.8-1.6h0.4    l0,0h0.7c0.5,0,0.8-0.1,1.1-0.3l0.1,0.1c0.4,0.2,0.6,0.3,0.9,0.3c0.4,0,0.6-0.3,0.7-0.9h0c0.1,0.6,0.4,0.9,1,0.9    c0.7,0,1-0.4,1-1.4C78.3,80.6,78.3,80.4,78.2,80.1L78.2,80.1z"></path>		</g>		<g>			<path d="M2.3,85h2.2c0.7,0,1.2,0.5,1.2,1.2s-0.4,1-0.8,1v0c0.4,0,1,0.3,1,1.1c0,0.7-0.5,1.3-1.2,1.3H2.3L2.3,85L2.3,85z     M3.3,86.9h1c0.3,0,0.4-0.2,0.4-0.4v-0.2c0-0.3-0.2-0.4-0.4-0.4h-1V86.9L3.3,86.9z M3.3,88.7h1.1c0.3,0,0.4-0.2,0.4-0.4v-0.2    c0-0.3-0.2-0.4-0.4-0.4H3.3V88.7z"></path>			<path d="M9.4,89.5L9,88.5H7.5l-0.3,1.1h-1L7.7,85h1.2l1.5,4.5C10.4,89.5,9.4,89.5,9.4,89.5z M8.3,85.9L8.3,85.9l-0.5,1.7h1    L8.3,85.9z"></path>			<path d="M14.2,89.5h-3.4v-0.9l2.2-2.8h-2.1V85h3.3v0.9l-2.2,2.8h2.3L14.2,89.5L14.2,89.5z"></path>			<path d="M16.3,89.5v-0.8h0.6v-3h-0.6V85h2.2v0.8h-0.6v3h0.6v0.8H16.3z"></path>			<path d="M20.7,87.4l-0.4-0.9h0v3.1h-0.9V85h1.1l1.2,2.1l0.4,0.9h0V85H23v4.5h-1.1L20.7,87.4z"></path>			<path d="M25.9,85.9v3.7h-1v-3.7h-1.2V85h3.4v0.9H25.9L25.9,85.9z"></path>			<path d="M27.8,89.5V85h1v3.7h1.7v0.9H27.8z"></path>			<path d="M31.3,89.1V89c0-0.3,0.2-0.5,0.6-0.5s0.6,0.2,0.6,0.5v0.1c0,0.3-0.2,0.5-0.6,0.5S31.3,89.4,31.3,89.1z"></path>			<path d="M34.8,89.5v-0.8h0.6v-3h-0.6V85h2.2v0.8h-0.6v3h0.6v0.8H34.8z"></path>			<path d="M39.1,87.4l-0.4-0.9h0v3.1h-0.9V85h1.1l1.2,2.1l0.4,0.9h0V85h0.9v4.5h-1.1L39.1,87.4z"></path>			<path d="M42.5,85h1.7c1.2,0,2,0.8,2,2.3s-0.8,2.3-2,2.3h-1.7V85L42.5,85z M44.2,88.7c0.6,0,0.9-0.3,0.9-1v-0.7c0-0.7-0.4-1-0.9-1    h-0.7v2.8L44.2,88.7L44.2,88.7z"></path>			<path d="M47.9,85v2.8c0,0.6,0.2,1,0.8,1s0.8-0.3,0.8-1V85h1v2.7c0,1.3-0.5,1.9-1.8,1.9S47,89,47,87.7V85H47.9L47.9,85z"></path>			<path d="M51.3,88.9l0.7-0.7c0.3,0.3,0.7,0.5,1.1,0.5c0.5,0,0.7-0.2,0.7-0.5c0-0.2-0.1-0.4-0.5-0.5l-0.4-0.1    c-1-0.1-1.4-0.6-1.4-1.4c0-0.8,0.6-1.4,1.7-1.4c0.7,0,1.2,0.2,1.6,0.6L54,86.2c-0.2-0.3-0.5-0.4-1-0.4c-0.4,0-0.7,0.2-0.7,0.4    c0,0.3,0.2,0.4,0.5,0.5l0.4,0.1c0.9,0.2,1.4,0.6,1.4,1.3c0,0.9-0.6,1.5-1.8,1.5C52.2,89.6,51.7,89.3,51.3,88.9L51.3,88.9z"></path>			<path d="M57.3,85.9v3.7h-1v-3.7h-1.2V85h3.4v0.9H57.3L57.3,85.9z"></path>			<path d="M60.2,89.5h-1V85h2.2c0.8,0,1.4,0.6,1.4,1.4c0,0.6-0.3,1.1-0.8,1.3l0.9,1.8h-1.1l-0.8-1.7h-0.7L60.2,89.5L60.2,89.5z     M61.3,87c0.3,0,0.5-0.2,0.5-0.4v-0.3c0-0.3-0.2-0.4-0.5-0.4h-1V87H61.3z"></path>			<path d="M64.5,89.5v-1.8L62.9,85H64l1,1.8h0l0.9-1.8H67l-1.6,2.8v1.8H64.5z"></path>			<path d="M68.9,87.3c0-1.5,0.8-2.4,2-2.4c0.8,0,1.4,0.3,1.7,1.1l-0.9,0.4c-0.1-0.4-0.4-0.6-0.8-0.6c-0.6,0-1,0.4-1,1.1v0.7    c0,0.7,0.4,1.1,1,1.1c0.5,0,0.8-0.3,0.9-0.7l0.8,0.5c-0.3,0.7-0.9,1.1-1.7,1.1C69.7,89.6,68.9,88.8,68.9,87.3L68.9,87.3z"></path>			<path d="M73.1,87.3c0-1.5,0.8-2.3,2-2.3s2,0.8,2,2.3s-0.8,2.3-2,2.3S73.1,88.8,73.1,87.3z M76,87.6v-0.7c0-0.7-0.4-1.1-0.9-1.1    c-0.6,0-0.9,0.4-0.9,1.1v0.7c0,0.7,0.4,1.1,0.9,1.1C75.7,88.7,76,88.3,76,87.6z"></path>			<path d="M77.6,89.1V89c0-0.3,0.2-0.5,0.6-0.5s0.6,0.2,0.6,0.5v0.1c0,0.3-0.2,0.5-0.6,0.5S77.6,89.4,77.6,89.1z"></path>		</g>	</g></g></svg>